<svg height="16.748" width="26.6895" xmlns="http://www.w3.org/2000/svg"><path d="m0 0h26.6895v16.748h-26.6895z" opacity="0"/><path d="m13.3496 16.748c7.8906 0 13.3399-6.3769 13.3399-8.36909 0-2.00196-5.459-8.36914438-13.3399-8.36914438-7.78319 0-13.3496 6.36718438-13.3496 8.36914438 0 1.99219 5.55664 8.36909 13.3496 8.36909zm0-1.5429c-6.43554 0-11.64062-5.44924-11.64062-6.82619 0-1.16211 5.20508-6.82618 11.64062-6.82618 6.4063 0 11.6309 5.66407 11.6309 6.82618 0 1.37695-5.2246 6.82619-11.6309 6.82619zm0-1.3574c3.0371 0 5.4785-2.4903 5.4785-5.46879 0-3.05664-2.4414-5.46875-5.4785-5.46875-3.0566 0-5.5078 2.41211-5.49804 5.46875.01953 2.97849 2.44144 5.46879 5.49804 5.46879zm0-3.6524c-1.0156 0-1.8359-.8203-1.8359-1.81639 0-1.00586.8203-1.81641 1.8359-1.81641 1.0059 0 1.8262.81055 1.8262 1.81641 0 .99609-.8203 1.81639-1.8262 1.81639z" fill="#0a84ff"/></svg>