<svg height="22.1948" width="22.1851" xmlns="http://www.w3.org/2000/svg"><path d="m0 0h22.1851v22.1948h-22.1851z" opacity="0"/><path d="m5.17456 19.5593h2.11914c.19532 0 .3418.0586.48829.2051l1.5039 1.4941c1.23051 1.2403 2.37301 1.2305 3.60351 0l1.5039-1.4941c.1563-.1465.293-.2051.4981-.2051h2.1093c1.7481 0 2.5586-.8008 2.5586-2.5586v-2.1093c0-.2051.0586-.3418.2051-.4981l1.4941-1.5039c1.2403-1.2305 1.2305-2.373 0-3.60351l-1.4941-1.5039c-.1465-.14649-.2051-.29297-.2051-.48829v-2.11914c0-1.73828-.8008-2.55859-2.5586-2.55859h-2.1093c-.2051 0-.3418-.04883-.4981-.19531l-1.5039-1.494143c-1.2305-1.240234-2.373-1.230468-3.60351 0l-1.5039 1.494143c-.14649.14648-.29297.19531-.48829.19531h-2.11914c-1.74804 0-2.55859.80078-2.55859 2.55859v2.11914c0 .19532-.04883.3418-.19531.48829l-1.494143 1.5039c-1.240234 1.23051-1.230468 2.37301 0 3.60351l1.494143 1.5039c.14648.1563.19531.293.19531.4981v2.1093c0 1.7481.81055 2.5586 2.55859 2.5586z" fill="#0a84ff"/><path d="m9.99878 15.8582c-.33203 0-.60547-.127-.85937-.4688l-2.45117-3.0078c-.14649-.1953-.23438-.4199-.23438-.6348 0-.4492.3418-.8105.79102-.8105.27343 0 .48828.0976.73242.4199l1.98242 2.5586 4.16988-6.69922c.1856-.30273.4395-.44922.7032-.44922.4199 0 .8203.29297.8203.74219 0 .22461-.127.44922-.2442.64453l-4.5898 7.23632c-.2051.3125-.4883.4688-.82032.4688z" fill="#32d74b"/></svg>