<svg height="28.3521" width="28.3325" xmlns="http://www.w3.org/2000/svg"><path d="m0 0h28.3325v28.3521h-28.3325z" opacity="0"/><path d="m6.46607 24.9329h2.85156c.27344 0 .46875.0683.66406.2734l2.03121 2.002c1.4844 1.5039 2.8223 1.4941 4.3067 0l2.0312-2.002c.2051-.2051.4004-.2734.6641-.2734h2.8516c2.1093 0 3.0664-.9473 3.0664-3.0664v-2.8418c0-.2735.0683-.4688.2636-.6739l2.0118-2.0215c1.5039-1.4941 1.4941-2.832 0-4.3164l-2.0118-2.03121c-.1953-.19531-.2636-.39062-.2636-.66406v-2.85156c0-2.09961-.9473-3.05664-3.0664-3.05664h-2.8516c-.2637 0-.459-.07813-.6641-.27344l-2.0312-2.01172c-1.4844-1.503906-2.8223-1.49414-4.3164 0l-2.02151 2.01172c-.19531.19531-.39062.27344-.66406.27344h-2.85156c-2.10938 0-3.05664.9375-3.05664 3.05664v2.85156c0 .27344-.07813.46875-.27344.66406l-2.01172 2.03121c-1.503906 1.4844-1.49414 2.8223 0 4.3164l2.01172 2.0215c.19531.2051.27344.4004.27344.6739v2.8418c0 2.1093.94726 3.0664 3.05664 3.0664z" fill="#0a84ff"/><path d="m12.7844 20.2844c-.3711 0-.664-.1465-.9472-.5176l-3.33012-4.0234c-.15625-.2148-.2539-.459-.2539-.7031 0-.4883.37109-.8887.85937-.8887.3125 0 .55664.1074.81055.459l2.8125 3.5059 5.6445-8.97465c.2051-.32227.4785-.48828.7715-.48828.4688 0 .9082.32226.9082.82031 0 .23437-.1367.48828-.2637.70312l-6.123 9.5898c-.2246.3418-.5273.5176-.8887.5176z" fill="#1e1e1e"/></svg>