<svg height="28.4302" width="28.3276" xmlns="http://www.w3.org/2000/svg"><path d="m0 0h28.3276v28.4302h-28.3276z" opacity="0"/><g fill="#0a84ff"><path d="m6.46851 24.9329h2.8418c.27343 0 .46875.0683.67382.2636l2.02147 2.0118c1.4942 1.4941 2.8223 1.4843 4.3164 0l2.0215-2.0118c.2051-.1953.4004-.2636.6738-.2636h2.8418c2.1094 0 3.0664-.9473 3.0664-3.0664v-2.8516c0-.2637.0782-.459.2735-.6641l2.0117-2.0312c1.4941-1.4844 1.4844-2.8125 0-4.3067l-2.0117-2.03121c-.1953-.19531-.2735-.39062-.2735-.66406v-2.85156c0-2.09961-.9472-3.05664-3.0664-3.05664h-2.8418c-.2734 0-.4687-.07813-.6738-.27344l-2.0215-2.01172c-1.4941-1.503906-2.8222-1.49414-4.3164 0l-2.02147 2.01172c-.19531.19531-.40039.27344-.67382.27344h-2.8418c-2.11914 0-3.06641.9375-3.06641 3.05664v2.85156c0 .27344-.07812.46875-.27343.66406l-2.01172 2.03121c-1.494144 1.4942-1.484379 2.8223 0 4.3067l2.01172 2.0312c.19531.2051.27343.4004.27343.6641v2.8516c0 2.1093.94727 3.0664 3.06641 3.0664zm0-1.7188c-1.14258 0-1.35742-.2051-1.35742-1.3476v-3.4278c0-.3711-.11719-.6543-.38086-.9179l-2.41211-2.4024c-.80078-.8105-.80078-1.084 0-1.9043l2.41211-2.4023c.26367-.2637.38086-.5469.38086-.918v-3.42773c0-1.15235.19531-1.34766 1.35742-1.34766h3.42773c.37106 0 .64456-.10742.90816-.38086l2.4024-2.41211c.8203-.81054 1.0937-.81054 1.9141 0l2.4023 2.41211c.2637.27344.5469.38086.918.38086h3.4179c1.1524 0 1.3575.20508 1.3575 1.34766v3.42773c0 .3711.1171.6543.3808.918l2.4121 2.4023c.8106.8203.8106 1.0938 0 1.9043l-2.4121 2.4024c-.2637.2636-.3808.5468-.3808.9179v3.4278c0 1.1425-.2051 1.3476-1.3575 1.3476h-3.4179c-.3711 0-.6543.1074-.918.3809l-2.4023 2.4121c-.8204.8105-1.0938.8105-1.9141 0l-2.4024-2.4121c-.2636-.2735-.5371-.3809-.90816-.3809z"/><path d="m12.8064 20.1477c.3516 0 .6445-.1758.8594-.498l5.9961-9.3848c.1172-.2051.2539-.44922.2539-.6836 0-.47851-.4297-.79101-.8789-.79101-.2832 0-.5567.16601-.752.47851l-5.5273 8.7793-2.7539-3.4375c-.24418-.3418-.48832-.4395-.79105-.4395-.46875 0-.83008.3809-.83008.8594 0 .2344.09766.4688.24414.6738l3.26169 3.9454c.2735.3515.5567.498.918.498z"/></g></svg>