<svg height="22.1948" width="22.1753" xmlns="http://www.w3.org/2000/svg"><path d="m0 0h22.1753v22.1948h-22.1753z" opacity="0"/><path d="m5.17456 19.5593h2.10938c.20508 0 .35156.0586.49805.2051l1.5039 1.4941c1.23051 1.2403 2.37301 1.2305 3.60351 0l1.5039-1.4941c.1465-.1465.293-.2051.4981-.2051h2.1093c1.7481 0 2.5586-.8008 2.5586-2.5586v-2.1093c0-.2051.0586-.3418.2051-.4981l1.4844-1.5039c1.2402-1.2305 1.2305-2.3633 0-3.60351l-1.4844-1.5039c-.1465-.14649-.2051-.29297-.2051-.48829v-2.11914c0-1.73828-.8008-2.55859-2.5586-2.55859h-2.1093c-.2051 0-.3516-.04883-.4981-.19531l-1.5039-1.494143c-1.2305-1.240234-2.373-1.230468-3.60351 0l-1.5039 1.494143c-.14649.14648-.29297.19531-.49805.19531h-2.10938c-1.74804 0-2.55859.80078-2.55859 2.55859v2.11914c0 .19532-.04883.3418-.19531.48829l-1.494143 1.5039c-1.240234 1.24021-1.230468 2.37301 0 3.60351l1.494143 1.5039c.14648.1563.19531.293.19531.4981v2.1093c0 1.7481.81055 2.5586 2.55859 2.5586zm0-1.5527c-.86914 0-1.00586-.1367-1.00586-1.0059v-2.6269c0-.293-.08789-.5176-.30273-.7324l-1.8457-1.836c-.61524-.625-.61524-.8008 0-1.4258l1.8457-1.8359c.21484-.21484.30273-.43945.30273-.74218v-2.62696c0-.8789.12696-1.00586 1.00586-1.00586h2.62696c.30273 0 .52734-.07812.74218-.30273l1.8359-1.8457c.625-.61524.8008-.61524 1.4161 0l1.8457 1.8457c.205.22461.4394.30273.7324.30273h2.6269c.8692 0 1.0059.13672 1.0059 1.00586v2.62696c0 .30273.0977.52734.3125.74218l1.8457 1.8359c.6152.625.6152.8008 0 1.4258l-1.8457 1.836c-.2148.2148-.3125.4394-.3125.7324v2.6269c0 .8692-.1367 1.0059-1.0059 1.0059h-2.6269c-.293 0-.5274.0879-.7324.3125l-1.8457 1.8457c-.6153.6152-.7911.6152-1.4161 0l-1.8359-1.8457c-.21484-.2246-.43945-.3125-.74218-.3125z" fill="#0a84ff"/></svg>