<svg height="15.4956" width="15.4859" xmlns="http://www.w3.org/2000/svg"><path d="m0 0h15.4859v15.4956h-15.4859z" opacity="0"/><path d="m.252699 15.2429c.341797.3321.908201.3321 1.240231 0l6.25-6.24997 6.24997 6.24997c.3321.3321.9082.3418 1.2403 0 .332-.3418.332-.8984 0-1.2304l-6.25003-6.2598 6.25003-6.25c.332-.33203.3418-.898439 0-1.23047-.3418-.3417968-.9082-.3417968-1.2403 0l-6.24997 6.25-6.25-6.25c-.33203-.3417968-.9082-.3515624-1.240231 0-.3320314.341797-.3320314.89844 0 1.23047l6.250001 6.25-6.250001 6.2598c-.3320314.332-.3417971.8984 0 1.2304z" fill="#fff" fill-opacity=".85"/></svg>