<svg height="28.2129" width="32.6172" xmlns="http://www.w3.org/2000/svg"><path d="m0 0h32.6172v28.2129h-32.6172z" opacity="0"/><path d="m3.80859 21.0352h17.39261c2.5195 0 3.7988-1.2793 3.7988-3.7598v-11.95313c0-2.48047-1.2793-3.75977-3.7988-3.75977h-17.39261c-2.52929 0-3.80859 1.26953-3.80859 3.75977v11.95313c0 2.5 1.2793 3.7598 3.80859 3.7598z" fill="#0a84ff"/><path d="m9.86328 28.2129h17.40232c3.3789 0 5.3516-1.9727 5.3516-5.3223v-11.9531c0-3.34961-1.9727-5.3125-5.3516-5.3125h-17.40232c-3.3789 0-5.35156 1.95312-5.35156 5.3125v11.9531c0 3.3692 1.97266 5.3223 5.35156 5.3223z" fill="#1e1e1e"/><path d="m9.86328 26.6504h17.40232c2.5098 0 3.7989-1.2793 3.7989-3.7598v-11.9531c0-2.48047-1.2891-3.75977-3.7989-3.75977h-17.40232c-2.51953 0-3.79883 1.26954-3.79883 3.75977v11.9531c0 2.5 1.2793 3.7598 3.79883 3.7598z" fill="#0a84ff"/><path d="m10.3711 15.3418 2.7246-1.6406-2.7246-1.6504c-.79102-.4688-.1074-1.6504.7324-1.1133l3.1934 1.9922c.5176.3418.5664 1.1816 0 1.5332l-3.1934 2.0019c-.8398.5372-1.51366-.6445-.7324-1.123zm4.5312 1.1523c0-.3418.2735-.625.6348-.625h4.1699c.3711 0 .6348.2832.6348.625 0 .3711-.2637.6641-.6348.6641h-4.1699c-.3613 0-.6348-.293-.6348-.6641z" fill="#1e1e1e"/></svg>