<svg height="25.0879" width="31.0645" xmlns="http://www.w3.org/2000/svg"><path d="m0 0h31.0645v25.0879h-31.0645z" opacity="0"/><path d="m3.79883 19.4727h17.40237c2.5097 0 3.7988-1.2793 3.7988-3.7598v-11.95313c0-2.48047-1.2891-3.75977-3.7988-3.75977h-17.40237c-2.5293 0-3.79883 1.26953-3.79883 3.75977v11.95313c0 2.5 1.26953 3.7598 3.79883 3.7598zm.03906-1.7286c-1.36719 0-2.10937-.7226-2.10937-2.1289v-11.75778c0-1.40625.74218-2.1289 2.10937-2.1289h17.32421c1.3379 0 2.1094.72265 2.1094 2.1289v11.75778c0 1.4063-.7715 2.1289-2.1094 2.1289z" fill="#0a84ff"/><path d="m9.86328 25.0879h17.39262c2.5195 0 3.8086-1.2793 3.8086-3.7598v-11.9531c0-2.48047-1.2891-3.75977-3.8086-3.75977h-17.39262c-2.5293 0-3.79883 1.26954-3.79883 3.75977v11.9531c0 2.5 1.26953 3.7598 3.79883 3.7598z" fill="#1e1e1e"/><g fill="#0a84ff"><path d="m9.86328 25.0879h17.39262c2.5195 0 3.8086-1.2793 3.8086-3.7598v-11.9531c0-2.48047-1.2891-3.75977-3.8086-3.75977h-17.39262c-2.5293 0-3.79883 1.26954-3.79883 3.75977v11.9531c0 2.5 1.26953 3.7598 3.79883 3.7598zm.0293-1.7285c-1.35742 0-2.09961-.7227-2.09961-2.1192v-11.76754c0-1.40625.74219-2.12891 2.09961-2.12891h17.33402c1.3379 0 2.0996.72266 2.0996 2.12891v11.76754c0 1.3965-.7617 2.1192-2.0996 2.1192z"/><path d="m10.6934 13.7109c-.80082.4883-.1075 1.709.7617 1.1524l3.0176-1.875c.5761-.3711.5273-1.2207 0-1.5625l-3.0176-1.88478c-.8692-.55664-1.58205.66408-.7617 1.16208l2.4902 1.5039zm4.2382 1.1524c0 .3711.293.6738.6739.6738h3.9453c.3711 0 .6543-.3027.6543-.6738s-.2832-.6641-.6543-.6641h-3.9453c-.3809 0-.6739.293-.6739.6641z"/></g></svg>