<svg height="26.9238" width="20.9668" xmlns="http://www.w3.org/2000/svg"><path d="m0 0h20.9668v26.9238h-20.9668z" opacity="0"/><path d="m3.75977 26.9238h13.44723c2.5 0 3.7598-1.289 3.7598-3.7988v-11.6895c0-1.45503-.1758-2.0898-1.084-3.00777l-7.2363-7.33398c-.8594-.888672-1.5625-1.08398438-2.86134-1.08398438h-6.02539c-2.48047 0-3.75977 1.27929438-3.75977 3.79882438v19.31641c0 2.5195 1.25977 3.7988 3.75977 3.7988zm.08789-1.7285c-1.39649 0-2.11914-.7422-2.11914-2.1094v-19.23824c0-1.33789.72265-2.10938 2.1289-2.10938h5.78125v7.48047c0 1.49415.75193 2.21675 2.21683 2.21675h7.3828v11.6504c0 1.3672-.7227 2.1094-2.1289 2.1094zm8.19334-15.39061c-.5469 0-.7715-.21485-.7715-.77149v-6.95312l7.627 7.72461z" fill="#0a84ff"/></svg>