<svg height="26.9238" width="20.9668" xmlns="http://www.w3.org/2000/svg"><path d="m0 0h20.9668v26.9238h-20.9668z" opacity="0"/><path d="m3.75977 26.9238h13.44723c2.5 0 3.7598-1.289 3.7598-3.7988v-11.7188h-9.0527c-1.5235 0-2.24613-.7324-2.24613-2.25581v-9.14062438h-5.9082c-2.48047 0-3.75977 1.27929438-3.75977 3.79882438v19.31641c0 2.5195 1.25977 3.7988 3.75977 3.7988zm8.21293-17.08005h8.8378c-.0781-.45898-.4101-.89844-.9277-1.41602l-7.2363-7.33398c-.4981-.517578-.9668-.859375-1.416-.9375v8.94531c0 .49805.2441.74219.7422.74219z" fill="#0a84ff"/></svg>