<svg height="20.9473" width="16.4258" xmlns="http://www.w3.org/2000/svg"><path d="m0 0h16.4258v20.9473h-16.4258z" opacity="0"/><path d="m8.95508 10.9277c0-.4004-.3418-.7226-.74219-.7226s-.74219.3222-.74219.7226v3.545l.0586 1.5918-.83008-.8594-.87891-.8985c-.13672-.1464-.34179-.2246-.52734-.2246-.40039 0-.68359.2832-.68359.6739 0 .2246.08789.3906.24414.5273l2.8125 2.5879c.20507.1855.36132.2539.54687.2539s.3418-.0684.54688-.2539l2.81253-2.5879c.1562-.1367.2441-.3027.2441-.5273 0-.3907-.293-.6739-.6836-.6739-.1953 0-.3906.0782-.5273.2246l-.87894.8985-.83008.8594.0586-1.5918zm-5.92774 10.0098h10.37106c2.0215 0 3.0274-1.0254 3.0274-3.0566v-8.86723c0-1.25976-.1465-1.80664-.9278-2.60742l-5.3808-5.478516c-.7422-.761718-1.35743-.927734-2.45118-.927734h-4.63868c-2.01172 0-3.02734 1.03516-3.02734 3.06641v14.81449c0 2.041 1.00586 3.0566 3.02734 3.0566zm.06836-1.5723c-1.00586 0-1.52343-.5371-1.52343-1.5136v-14.7559c0-.96679.51757-1.52343 1.5332-1.52343h4.3457v5.67382c0 1.23047.61524 1.83594 1.83594 1.83594h5.56639v8.76957c0 .9765-.5176 1.5136-1.5332 1.5136zm6.36719-11.75778c-.39062 0-.53711-.15625-.53711-.54687v-5.18555l5.62502 5.73242z" fill="#0a84ff"/></svg>