<svg height="22.939" width="28.369" xmlns="http://www.w3.org/2000/svg"><path d="m0 0h28.3691v22.9395h-28.3691z" opacity="0"/><path d="m3.79883 22.8027h21.06447c2.2363 0 3.5058-1.2793 3.5058-3.7597v-12.95902c0-2.49023-1.2793-3.75976-3.7988-3.75976h-12.1582c-.918 0-1.416-.19531-2.0703-.76172l-.74219-.625c-.83008-.722656-1.42578-.9375-2.68555-.9375h-3.58398c-2.13867 0-3.33008 1.18164-3.33008 3.57422v15.46878c0 2.4902 1.2793 3.7597 3.79883 3.7597zm.03906-1.7285c-1.36719 0-2.10937-.7226-2.10937-2.1289v-15.26366c0-1.30859.67382-1.96289 1.94336-1.96289h2.8125c.89843 0 1.38671.19531 2.05078.78125l.74218.625c.80076.69336 1.44536.92773 2.70506.92773h12.5586c1.3379 0 2.0996.72266 2.0996 2.11915v12.78322c0 1.3965-.7617 2.1191-2.0996 2.1191zm-2.79297-12.39256h26.28908v-1.63086h-26.28908z" fill="#0a84ff"/></svg>