<svg height="20.9473" width="16.4258" xmlns="http://www.w3.org/2000/svg"><path d="m0 0h16.4258v20.9473h-16.4258z" opacity="0"/><path d="m8.95508 17.4023v-3.5449l-.0586-1.5918.83008.8594.87894.8984c.1367.1465.332.2246.5273.2246.3906 0 .6836-.2832.6836-.6738 0-.2246-.0879-.3906-.2441-.5273l-2.81253-2.5879c-.20508-.1856-.36133-.2539-.54688-.2539s-.3418.0683-.54687.2539l-2.8125 2.5879c-.15625.1367-.24414.3027-.24414.5273 0 .3906.2832.6738.68359.6738.18555 0 .39062-.0781.52734-.2246l.87891-.8984.83008-.8594-.0586 1.5918v3.5449c0 .4004.3418.7227.74219.7227s.74219-.3223.74219-.7227zm-5.92774 3.5352h10.37106c2.0215 0 3.0274-1.0254 3.0274-3.0566v-8.86723c0-1.25976-.1465-1.80664-.9278-2.60742l-5.3808-5.478516c-.7422-.761718-1.35743-.927734-2.45118-.927734h-4.63868c-2.01172 0-3.02734 1.03516-3.02734 3.06641v14.81449c0 2.041 1.00586 3.0566 3.02734 3.0566zm.06836-1.5723c-1.00586 0-1.52343-.5371-1.52343-1.5136v-14.7559c0-.96679.51757-1.52343 1.5332-1.52343h4.3457v5.67382c0 1.23047.61524 1.83594 1.83594 1.83594h5.56639v8.76957c0 .9765-.5176 1.5136-1.5332 1.5136zm6.36719-11.75778c-.39062 0-.53711-.15625-.53711-.54687v-5.18555l5.62502 5.73242z" fill="#0a84ff"/></svg>