<svg height="20.9204" width="20.7105" xmlns="http://www.w3.org/2000/svg"><path d="m0 0h20.7105v20.9204h-20.7105z" opacity="0"/><path d="m10.4773 6.35376-1.29883 1.31836c1.28903.10742 2.12893.48828 2.76363 1.12305 1.709 1.70903 1.6993 4.13083.0098 5.82033l-3.19335 3.1836c-1.69922 1.6992-4.10157 1.709-5.81055.0097-1.70898-1.7187-1.69922-4.1211 0-5.8203l1.91406-1.914c-.27344-.61527-.34179-1.34769-.23437-1.98246l-2.8711 2.86136c-2.333981 2.3437-2.353512 5.664.00977 8.0273 2.37305 2.3731 5.69336 2.3535 8.02734.0195l3.3398-3.3496c2.3438-2.3437 2.3633-5.66403-.0097-8.02731-.6153-.61523-1.3965-1.05468-2.6465-1.26953zm-.2441 8.04684 1.2988-1.3183c-1.2891-.0977-2.12892-.4883-2.76369-1.1231-1.70898-1.709-1.69922-4.13083-.00976-5.82028l3.18355-3.1836c1.709-1.69921 4.1114-1.70898 5.8204 0 1.7089 1.70899 1.6894 4.1211 0 5.81055l-1.9141 1.91403c.2734.625.332 1.3477.2344 1.9825l2.8711-2.86137c2.3339-2.34375 2.3535-5.6543-.0098-8.02735-2.3731-2.373043-5.6934-2.353512-8.0371-.00976l-3.33009 3.33984c-2.34375 2.34375-2.36329 5.66404.00976 8.02734.61524.6152 1.39649 1.0547 2.64653 1.2695z" fill="#0a84ff"/></svg>