<svg height="20.918" width="22.4883" xmlns="http://www.w3.org/2000/svg"><path d="m0 0h22.4883v20.918h-22.4883z" opacity="0"/><path d="m4.20071 4.08691c-1.64063.83985-3.06641 1.9336-4.1015668 3.17383-.1367188.16602-.1367188.38086.0292968.55664l1.35742 1.34766c.18555.18555.45899.18555.64453-.00977 1.23047-1.29882 2.62696-2.28515 4.21875-2.91992zm6.62109 1.23047c.1465-.02929.3027-.03906.4492-.03906 3.6524.05859 6.6992 1.45508 9.1016 3.90625.1855.17578.4492.16602.6347-.01953l1.3477-1.34766c.1758-.17578.166-.39062.0391-.55664-2.3536-2.79297-6.6211-4.91211-11.1524-4.91211-.9863 0-1.96287.09766-3.06638.32227zm-2.26563 3.10547c-1.90429.51758-3.52539 1.54297-4.57031 2.78325-.13672.1757-.12695.3808.03906.5468l1.51368 1.5039c.20507.1953.46875.1758.66406-.039 1.16211-1.2891 3.00781-2.1875 4.92184-2.2168zm9.30663 3.93555.6055-.6055c.1758-.1758.1758-.3711.039-.5468-.9863-1.22075-2.705-2.30473-4.5605-2.76372zm-6.6113 1.3965c-1.3965 0-2.6172.7422-3.2422 1.5918-.09766.1562-.05859.332.08789.4785l2.37301 2.2852c.3809.371.5664.4687.7813.4687.2148 0 .4004-.1074.791-.4687l2.3633-2.2852c.1562-.1465.1953-.3613.0586-.5371-.6446-.8203-1.836-1.5332-3.2129-1.5332z" fill="#0a84ff"/><path d="m19.4741 17.71c.293.2929.7813.2929 1.0645 0 .2832-.3028.293-.7715 0-1.0645l-16.41602-16.425773c-.29297-.2929692-.78125-.2929692-1.07422 0-.29297.283203-.29297.791013 0 1.064453z" fill="#ff453a"/></svg>