<svg height="19.9316" width="19.9219" xmlns="http://www.w3.org/2000/svg"><path d="m0 0h19.9219v19.9316h-19.9219z" opacity="0"/><path d="m9.96094 19.9219c5.44926 0 9.96096-4.5215 9.96096-9.96096 0-5.44922-4.5215-9.96094-9.97073-9.96094-5.43945 0-9.95117 4.51172-9.95117 9.96094 0 5.43946 4.52148 9.96096 9.96094 9.96096zm0-1.6602c-4.60938 0-8.29102-3.6914-8.29102-8.30076 0-4.60938 3.67188-8.30078 8.28125-8.30078 4.60933 0 8.31053 3.6914 8.31053 8.30078 0 4.60936-3.6914 8.30076-8.30076 8.30076zm-.20508-6.2793c.48824 0 .79104-.3125.79104-.6933 0-.0391 0-.0879 0-.1172 0-.5469.3125-.8985.9961-1.34768.9472-.625 1.6211-1.19141 1.6211-2.36328 0-1.6211-1.4453-2.5-3.1055-2.5-1.67969 0-2.78321.80078-3.04688 1.69922-.04883.15625-.07813.3125-.07813.47851 0 .43945.3418.67383.66407.67383.33203 0 .54687-.15625.72265-.39062l.17578-.23438c.3418-.56641.84961-.89844 1.50391-.89844.8887 0 1.4648.50782 1.4648 1.25 0 .66406-.4101.98633-1.2597 1.58203-.70315.48829-1.23049 1.00591-1.23049 1.96291v.1269c0 .5079.2832.7715.78125.7715zm-.01953 2.9102c.56637 0 1.05467-.4492 1.05467-1.0156 0-.5665-.4785-1.0157-1.05467-1.0157s-1.05469.459-1.05469 1.0157c0 .5566.48828 1.0156 1.05469 1.0156z" fill="#0a84ff"/></svg>