<svg height="25.459" width="25.439" xmlns="http://www.w3.org/2000/svg"><path d="m0 0h25.4395v25.459h-25.4395z" opacity="0"/><path d="m12.7148 25.4395c6.9629 0 12.7247-5.7618 12.7247-12.7149 0-6.96288-5.7715-12.7246-12.7344-12.7246-6.95315 0-12.7051 5.76172-12.7051 12.7246 0 6.9531 5.76172 12.7149 12.7148 12.7149z" fill="#0a84ff"/><path d="m12.4609 15.3711c-.5664 0-.8886-.3027-.8886-.8887 0-.0781 0-.1562 0-.2344 0-1.2207.6347-1.8945 1.5918-2.5683 1.1718-.8106 1.6894-1.2695 1.6894-2.14845 0-1.02539-.8203-1.72852-2.0898-1.72852-1.0059 0-1.7676.56641-2.1289 1.40625l-.1856.27344c-.1855.2832-.4394.47852-.83006.47852-.38086 0-.77148-.28321-.77148-.78125 0-.21485.03906-.41016.09765-.60547.3125-1.2207 1.71879-2.30469 3.88669-2.30469 2.1582 0 3.9551 1.15235 3.9551 3.17383 0 1.46484-.8105 2.21684-2.0898 3.06644-.9278.625-1.3379 1.084-1.3379 1.8359v.2148c0 .459-.3321.8106-.8985.8106zm-.0195 3.75c-.6934 0-1.2793-.5566-1.2793-1.2305 0-.6836.5762-1.2402 1.2793-1.2402.6934 0 1.2793.5469 1.2793 1.2402 0 .6836-.5957 1.2305-1.2793 1.2305z" fill="#1e1e1e"/></svg>