<svg height="25.459" width="25.439" xmlns="http://www.w3.org/2000/svg"><path d="m0 0h25.4395v25.459h-25.4395z" opacity="0"/><g fill="#0a84ff"><path d="m12.7148 25.4395c6.9629 0 12.7247-5.7618 12.7247-12.7149 0-6.96288-5.7715-12.7246-12.7344-12.7246-6.95315 0-12.7051 5.76172-12.7051 12.7246 0 6.9531 5.76172 12.7149 12.7148 12.7149zm0-1.8165c-6.03511 0-10.88863-4.8632-10.88863-10.8984 0-6.04491 4.84375-10.89843 10.87893-10.89843 6.0449 0 10.9082 4.85352 10.9082 10.89843 0 6.0352-4.8535 10.8984-10.8985 10.8984z"/><path d="m12.4609 15.3027c.5469 0 .8692-.3418.8692-.7812 0-.0684 0-.1465 0-.2149 0-.7324.4004-1.1816 1.3086-1.7968 1.25-.8301 2.0312-1.5625 2.0312-2.98832 0-1.96289-1.7578-3.08593-3.8476-3.08593-2.1094 0-3.48636 1.05468-3.7891 2.24609-.05859.19531-.08789.38086-.08789.58594 0 .48828.3711.76172.74219.76172.3809 0 .625-.18555.8105-.46875l.1758-.26367c.3418-.81055 1.0938-1.38672 2.0801-1.38672 1.25 0 2.041.69336 2.041 1.69922 0 .85942-.498 1.30862-1.6406 2.09962-.9375.6543-1.5527 1.3183-1.5527 2.5v.2344c0 .5664.3125.8593.8593.8593zm-.0195 3.6621c.6641 0 1.2402-.5371 1.2402-1.2011 0-.6739-.5664-1.2012-1.2402-1.2012-.6836 0-1.2402.5371-1.2402 1.2012 0 .6543.5664 1.2011 1.2402 1.2011z"/></g></svg>