<svg height="17.998" width="23.4277" xmlns="http://www.w3.org/2000/svg"><path d="m0 0h23.4277v17.998h-23.4277z" opacity="0"/><path d="m6.58203 17.998h10.25387c1.9239 0 2.7735-.8984 3.0664-2.8125l1.5723-10.62495-1.5723.09765-1.5625 10.5078c-.1464.9668-.664 1.3574-1.5234 1.3574h-10.20507c-.87891 0-1.38672-.3906-1.52344-1.3574l-1.5625-10.5078-1.57227-.09765 1.57227 10.62495c.2832 1.9239 1.14258 2.8125 3.05664 2.8125zm-4.72656-12.60738h19.71683c1.2011 0 1.8554-.75195 1.8554-1.94335v-1.48438c0-1.191406-.6543-1.9433588-1.8554-1.9433588h-19.71683c-1.142579 0-1.85547.7519528-1.85547 1.9433588v1.48438c0 1.1914.654297 1.94335 1.85547 1.94335zm.40039-1.4746c-.48828 0-.68359-.20508-.68359-.69336v-1.03516c0-.48828.19531-.69336.68359-.69336h18.92574c.4883 0 .6739.20508.6739.69336v1.03516c0 .48828-.1856.69336-.6739.69336zm6.63086 10.56638c.19531 0 .37109-.0976.51758-.2344l2.3047-2.3144 2.3144 2.3144c.1368.127.3125.2344.5274.2344.4101 0 .7519-.3515.7519-.7617 0-.2246-.0976-.3809-.2343-.5273l-2.295-2.3047 2.3047-2.33401c.1465-.15625.2344-.30274.2344-.50781 0-.41993-.332-.75196-.7617-.75196-.1856 0-.3516.07813-.5078.23438l-2.334 2.31445-2.31447-2.30469c-.15625-.14648-.3125-.22461-.50781-.22461-.41992 0-.76172.32227-.76172.73243 0 .21484.09766.38085.23438.51757l2.29492 2.32425-2.29492 2.3144c-.13672.1367-.23438.3028-.23438.5176 0 .4102.3418.7617.76172.7617z" fill="#0a84ff"/></svg>