<svg height="21.6794" width="21.9922" xmlns="http://www.w3.org/2000/svg"><path d="m0 0h21.9922v21.6794h-21.9922z" opacity="0"/><path d="m10.9961 20.3465c.2539 0 .498-.0195.7617-.039l.5567 1.0644c.1171.2246.3222.3321.5957.3028.2441-.0489.4101-.2344.4492-.4883l.166-1.1817c.4883-.1367.9668-.3222 1.4258-.5175l.8789.791c.1855.1758.4199.2051.664.0781.2149-.1269.3028-.3516.2539-.6152l-.2441-1.1621c.4102-.2832.8106-.6055 1.1719-.9668l1.084.4492c.2441.1074.4785.0488.664-.166.166-.1856.1758-.4297.0391-.6543l-.6348-1.0157c.293-.4003.5274-.8496.752-1.3183l1.2011.0586c.254.0195.459-.127.5469-.3613.0781-.2442.0098-.4786-.1953-.6348l-.9375-.7422c.127-.4785.2246-.9766.2735-1.5039l1.123-.3613c.2539-.0782.4004-.2637.4004-.5274 0-.2636-.1465-.4492-.4004-.5371l-1.123-.35155c-.0489-.52734-.1465-1.01562-.2735-1.5039l.9375-.74219c.1953-.15625.2734-.38086.1953-.625-.0879-.23438-.2929-.38086-.5469-.36133l-1.2011.03906c-.2246-.46875-.459-.89844-.752-1.31836l.6348-1.01562c.1367-.20508.1172-.44922-.0391-.63477-.1855-.21484-.4199-.26367-.664-.16601l-1.084.43945c-.3613-.35156-.7617-.68359-1.1719-.9668l.2441-1.15234c.0586-.27344-.039-.49805-.2539-.61524-.2441-.13671-.4785-.10742-.664.07813l-.8789.78125c-.459-.20508-.9375-.37109-1.4258-.51758l-.166-1.171874c-.0391-.253906-.2149-.4394528-.459-.4882809-.2637-.0292969-.4785.078125-.5859.2929689l-.5567 1.064456c-.2637-.01953-.5078-.0293-.7617-.0293-.2637 0-.4981.00977-.7617.0293l-.56643-1.064456c-.10742-.2148439-.32227-.3222658-.58594-.2929689-.24414.0488281-.41992.2343749-.44922.4882809l-.17578 1.171874c-.48828.14649-.95703.30274-1.42578.51758l-.87891-.78125c-.18554-.18555-.41992-.20508-.66406-.07813-.21484.11719-.3125.3418-.2539.61524l.24414 1.15234c-.4004.28321-.81055.61524-1.17188.9668l-1.08398-.43945c-.24414-.09766-.46875-.04883-.6543.16601-.16602.18555-.18555.42969-.04883.63477l.63477 1.01562c-.28321.41992-.52735.84961-.75196 1.31836l-1.1914-.03906c-.253909-.01953-.468752.12695-.556643.36133-.078125.24414 0 .46875.195312.625l.937501.74219c-.12695.48828-.22461.97656-.25391 1.49414l-1.142575.36131c-.253906.0879-.390625.2735-.390625.5371 0 .2637.136719.4492.390625.5274l1.142575.3613c.0293.5273.12696 1.0254.25391 1.5039l-.937501.7422c-.195312.1465-.263671.3808-.195312.6348.087891.2343.302734.3808.556643.3613l1.1914-.0586c.22461.4687.46875.918.75196 1.3183l-.63477 1.0157c-.13672.2246-.11719.4687.04883.6543.18555.2148.41016.2734.6543.166l1.08398-.4492c.36133.3613.77148.6836 1.17188.9668l-.24414 1.1621c-.04883.2636.03906.4883.2539.6152.24414.127.47852.0977.66406-.0781l.87891-.791c.46875.1953.9375.3808 1.42578.5175l.17578 1.1817c.0293.2539.20508.4394.44922.4883.26367.0293.46875-.0782.58594-.3028l.56643-1.0644c.2539.0195.498.039.7617.039zm0-1.4746c-4.47266 0-7.92969-3.5742-7.92969-8.0273 0-4.4629 3.45703-8.03712 7.92969-8.03712 4.4727 0 7.9297 3.57422 7.9297 8.03712 0 4.4531-3.457 8.0273-7.9297 8.0273zm-1.70899-9.63864 1.08399-.68359-3.31055-5.66407-1.12305.63477zm3.97459 2.22654h6.5918l-.0097-1.2597h-6.5821zm-2.8808 1.6895-1.07426-.7031-3.4668 5.6738 1.11328.6543zm.5957.2636c1.4062 0 2.5488-1.1425 2.5488-2.5585 0-1.41606-1.1426-2.55864-2.5488-2.55864-1.41605 0-2.55863 1.14258-2.55863 2.55864 0 1.416 1.14258 2.5585 2.55863 2.5585zm0-1.3769c-.6739 0-1.18168-.5176-1.18168-1.1816 0-.6641.50778-1.18169 1.18168-1.18169.664 0 1.1718.51759 1.1718 1.18169 0 .664-.5078 1.1816-1.1718 1.1816z" fill="#0a84ff"/></svg>