<svg height="23.2449" width="20.7718" xmlns="http://www.w3.org/2000/svg"><path d="m0 0h20.7718v23.2449h-20.7718z" opacity="0"/><path d="m1.23176 22.0082c1.63086 1.6309 3.53515 1.6504 5.13672.0488 1.18164-1.1816 2.42187-3.9648 3.33984-5.0586l2.08008 2.0899c.7617.7715 1.6797.7715 2.4219.0293l1.2597-1.2696c.7422-.7519.7422-1.6406-.0293-2.4121l-7.62691-7.63669c-.77148-.77149-1.66992-.78125-2.42188-.0293l-1.25976 1.26953c-.74219.74219-.75195 1.65036.01953 2.42186l2.08984 2.0801c-1.08398.918-3.86718 2.1484-5.04882 3.3301-1.601566 1.6015-1.591801 3.5156.03906 5.1367zm4.25781-12.09962.79102-.77148c.2539-.25391.52734-.26367.78125-.00977l7.06056 7.05077c.2441.2539.2441.5274-.0195.791l-.7618.7715c-.2539.2735-.5468.2832-.8007.0098l-2.334-2.3438c-.36136-.3613-.83011-.3222-1.24027.0782-.76172.7519-2.09961 3.9648-3.65234 5.5078-.9375.9472-2.07031.9472-3.04688-.0196-.95703-.9668-.96679-2.1093-.01953-3.0468 1.55274-1.543 4.76563-2.8809 5.51758-3.6426.39063-.4199.43945-.8887.07813-1.2403l-2.35352-2.3437c-.25391-.2539-.25391-.5371 0-.79102zm-1.72851 10.80082c.66406 0 1.20117-.5469 1.20117-1.211 0-.664-.53711-1.2011-1.20117-1.2011-.66407 0-1.21094.5371-1.21094 1.2011 0 .6641.54687 1.211 1.21094 1.211zm11.57224-4.3067 4.6387-4.6386c1.084-1.084 1.0644-2.38286-.0488-3.49614l-7.6661-7.675783c-1.0253-1.025391-2.80269-.6250005-3.16401.966793-.90821 3.94532-.94727 4.41407-2.44141 6.50391l1.12305 1.12305c1.70898-2.23633 1.83593-3.33008 2.77347-6.81641.1269-.49805.5371-.625.8691-.30273l7.3145 7.30468c.4492.44922.4492.99613.0293 1.41603l-4.5215 4.5215zm-1.5429-5.5664c.5175.5176 3.3691-1.06444 4.3554-2.30467l-2.1484-2.13867c-.1856 1.72851-1.084 2.97851-2.1778 4.07224-.1269.127-.1171.2832-.0292.3711z" fill="#0a84ff"/></svg>