<svg height="25.1465" width="21.5625" xmlns="http://www.w3.org/2000/svg"><path d="m0 0h21.5625v25.1465h-21.5625z" opacity="0"/><path d="m3.06641 22.373h15.42969c2.041 0 3.0664-1.0156 3.0664-3.0273v-9.71679c0-1.40625-.293-2.03125-1.2207-2.76368l-7.5488-5.937496c-.7032-.566406-1.2891-.927734-2.0118-.927734-.7226 0-1.30854.361328-2.01167.927734l-7.54883 5.937496c-.927731.73243-1.2207 1.35743-1.2207 2.76368v9.71679c0 2.0215 1.02539 3.0273 3.06641 3.0273zm-.0586-1.4941c-.97656 0-1.51367-.5176-1.51367-1.5332v-9.98047c0-.70312.18555-1.04492.6543-1.40625l7.46094-5.82031c.47852-.37109.74222-.57617 1.17182-.57617.42 0 .6934.20508 1.1719.57617l7.461 5.82031c.4687.36133.6543.70313.6543 1.40625v9.98047c0 1.0156-.5567 1.5332-1.5137 1.5332zm-1.90429-.3516 1.02539 1.0157 7.49023-7.3828c.41016-.42.79106-.6055 1.18166-.6055.3808 0 .7617.1855 1.1816.6055l7.4903 7.3828 1.0156-1.0157-7.6563-7.5195c-.6836-.6836-1.3476-.957-2.0312-.957-.6934 0-1.34768.2734-2.03127.957zm6.14257-5.7519 1.02539-1.0059-6.10351-6.03512-1.01563 1.01562zm6.08401-1.0059 1.0156 1.0059 6.0938-6.0254-1.0157-1.01562z" fill="#0a84ff"/></svg>